/* XPM */
static char * pwdedit_xpm[] = {
"16 16 68 1",
" 	g None",
".	g #000000",
"+	g #FFFFFF",
"@	g #DDDDDD",
"#	g #AAAAAA",
"$	g #A5A5A5",
"%	g #B2B2B2",
"&	g #D4D4D4",
"*	g #F2F2F2",
"=	g #B3B3B3",
"-	g #BDBDBD",
";	g #ECECEC",
">	g #E1E1E1",
",	g #787878",
"'	g #868686",
")	g #A8A8A8",
"!	g #9F9F9F",
"~	g #C7C7C7",
"{	g #ADADAD",
"]	g #2D2D2D",
"^	g #7B7B7B",
"/	g #909090",
"(	g #666666",
"_	g #D1D1D1",
":	g #A7A7A7",
"<	g #575757",
"[	g #F4F4F4",
"}	g #F8F8F8",
"|	g #2F2F2F",
"1	g #C2C2C2",
"2	g #EFEFEF",
"3	g #4B4B4B",
"4	g #838383",
"5	g #A2A2A2",
"6	g #4D4D4D",
"7	g #E5E5E5",
"8	g #B9B9B9",
"9	g #5C5C5C",
"0	g #707070",
"a	g #D3D3D3",
"b	g #595959",
"c	g #8A8A8A",
"d	g #B7B7B7",
"e	g #CCCCCC",
"f	g #8C8C8C",
"g	g #5E5E5E",
"h	g #373737",
"i	g #767676",
"j	g #FBFBFB",
"k	g #1E1E1E",
"l	g #7A7A7A",
"m	g #F7F7F7",
"n	g #949494",
"o	g #323232",
"p	g #B8B8B8",
"q	g #282828",
"r	g #D2D2D2",
"s	g #3D3D3D",
"t	g #B1B1B1",
"u	g #E2E2E2",
"v	g #898989",
"w	g #D7D7D7",
"x	g #9A9A9A",
"y	g #828282",
"z	g #ABABAB",
"A	g #C9C9C9",
"B	g #D0D0D0",
"C	g #EAEAEA",
"................",
"................",
"...++++..+++++..",
".+@#$%&++*%%=-;+",
".>,')!~++{]^/,(_",
"+:<[++}++{|1+234",
"+567++..+{|8.+90",
".a<bcd+.+{|1+234",
".+efghij+{kl/,(_",
"..++mnop+{q/=-;+",
".++..rst+{|8++..",
"+7t@uv9w+{|8....",
"+7x/y4z++A'B....",
".++[Cj+..+++....",
"................",
"................"};
